<svg width="133" height="17" viewBox="0 0 133 17" fill="none" xmlns="http://www.w3.org/2000/svg">
<path d="M2.15625 7.65625V11.8594H7.65625L7.53906 13H0.695312V1.35156H7.39844L7.27344 2.49219H2.15625V6.41406H7.01562V7.65625H2.15625ZM12.8125 2.17188V1.39844C12.8125 1.21094 12.9167 1.04688 13.125 0.90625C13.3385 0.760417 13.5495 0.6875 13.7578 0.6875C13.9661 0.6875 14.1745 0.760417 14.3828 0.90625C14.5964 1.04688 14.7031 1.21094 14.7031 1.39844V2.17188C14.7031 2.35938 14.5964 2.52604 14.3828 2.67188C14.1745 2.8125 13.9661 2.88281 13.7578 2.88281C13.5495 2.88281 13.3385 2.8125 13.125 2.67188C12.9167 2.52604 12.8125 2.35938 12.8125 2.17188ZM10.6016 5.52344V4.42969H14.4688V11.9062H16.9219V13H10.3281V11.9062H13.0469V5.52344H10.6016ZM22.4609 13H21.0391V4.42969H22.2031L22.3203 6.01562C22.6693 5.41146 23.1276 4.95312 23.6953 4.64062C24.263 4.32812 24.9062 4.17188 25.625 4.17188H26.3125V5.49219H25.4219C24.5104 5.49219 23.7891 5.72135 23.2578 6.17969C22.7266 6.63281 22.4609 7.31771 22.4609 8.23438V13ZM32.0312 2.17188V1.39844C32.0312 1.21094 32.1354 1.04688 32.3438 0.90625C32.5573 0.760417 32.7682 0.6875 32.9766 0.6875C33.1849 0.6875 33.3932 0.760417 33.6016 0.90625C33.8151 1.04688 33.9219 1.21094 33.9219 1.39844V2.17188C33.9219 2.35938 33.8151 2.52604 33.6016 2.67188C33.3932 2.8125 33.1849 2.88281 32.9766 2.88281C32.7682 2.88281 32.5573 2.8125 32.3438 2.67188C32.1354 2.52604 32.0312 2.35938 32.0312 2.17188ZM29.8203 5.52344V4.42969H33.6875V11.9062H36.1406V13H29.5469V11.9062H32.2656V5.52344H29.8203ZM40.5 7.90625L44.2969 4.42969H46.0938L42.2734 7.98438L46.6172 13H44.8359L41.2656 8.64062L40.5 9.3125V13H39.0781V0.929688L40.5 0.773438V7.90625ZM62.7266 3.00781C62.3724 2.57031 61.9479 2.35156 61.4531 2.35156C60.9583 2.35156 60.5339 2.57031 60.1797 3.00781C59.8255 3.4401 59.5651 4.01302 59.3984 4.72656C59.2318 5.4401 59.1484 6.25521 59.1484 7.17188C59.1484 8.08854 59.2318 8.90365 59.3984 9.61719C59.5651 10.3307 59.8255 10.9036 60.1797 11.3359C60.5339 11.7682 60.9583 11.9844 61.4531 11.9844C61.9479 11.9844 62.3724 11.7682 62.7266 11.3359C63.0807 10.9036 63.3411 10.3307 63.5078 9.61719C63.6745 8.90365 63.7578 8.08854 63.7578 7.17188C63.7578 6.25521 63.6745 5.4401 63.5078 4.72656C63.3411 4.01302 63.0807 3.4401 62.7266 3.00781ZM63.1641 12.7109C62.6641 13.0339 62.0938 13.1953 61.4531 13.1953C60.8125 13.1953 60.2422 13.0339 59.7422 12.7109C59.2422 12.3828 58.8385 11.9375 58.5312 11.375C57.9219 10.2448 57.6172 8.84115 57.6172 7.16406C57.6172 5.09115 58.026 3.51042 58.8438 2.42188C59.1302 2.03646 59.4948 1.72917 59.9375 1.5C60.3854 1.27083 60.8906 1.15625 61.4531 1.15625C62.0156 1.15625 62.5208 1.27083 62.9688 1.5C63.7812 1.91667 64.3698 2.64323 64.7344 3.67969C65.1042 4.71094 65.2891 5.8724 65.2891 7.16406C65.2891 8.84115 64.9844 10.2448 64.375 11.375C64.0677 11.9375 63.6641 12.3828 63.1641 12.7109ZM70.5078 13H69.0859V4.42969H70.25L70.3672 6.01562C70.7161 5.41146 71.1745 4.95312 71.7422 4.64062C72.3099 4.32812 72.9531 4.17188 73.6719 4.17188H74.3594V5.49219H73.4688C72.5573 5.49219 71.8359 5.72135 71.3047 6.17969C70.7734 6.63281 70.5078 7.31771 70.5078 8.23438V13ZM78.9375 7.90625L82.7344 4.42969H84.5312L80.7109 7.98438L85.0547 13H83.2734L79.7031 8.64062L78.9375 9.3125V13H77.5156V0.929688L78.9375 0.773438V7.90625ZM88.6797 12.6016C88.0807 12.2005 87.6354 11.6641 87.3438 10.9922C87.0573 10.3151 86.9141 9.55208 86.9141 8.70312C86.9141 7.85417 87.0469 7.09375 87.3125 6.42188C87.5833 5.74479 87.9844 5.20052 88.5156 4.78906C89.0521 4.3724 89.6406 4.16406 90.2812 4.16406C91.4896 4.16406 92.375 4.57812 92.9375 5.40625C93.5 6.23438 93.7812 7.2526 93.7812 8.46094V8.9375H88.3516C88.3828 9.81771 88.6016 10.5651 89.0078 11.1797C89.4193 11.7943 90.0339 12.1016 90.8516 12.1016C91.3984 12.0495 92.1615 11.7526 93.1406 11.2109L93.6094 12.1797C92.9323 12.8568 92.0078 13.1953 90.8359 13.1953C89.9974 13.1953 89.2786 12.9974 88.6797 12.6016ZM92.4219 7.89844C92.3177 6.14323 91.7031 5.26562 90.5781 5.26562C89.3073 5.26562 88.5807 6.14323 88.3984 7.89844H92.4219ZM103.211 13H102.078C101.073 13 100.354 12.8958 99.9219 12.6875C99.6719 12.5677 99.474 12.4297 99.3281 12.2734C98.9427 11.8724 98.7422 10.987 98.7266 9.61719V1.86719H96.1641V0.773438H100.148V9.54688C100.148 10.5833 100.242 11.2188 100.43 11.4531C100.622 11.6875 100.862 11.8229 101.148 11.8594C101.435 11.8906 101.727 11.9062 102.023 11.9062H103.281L103.211 13ZM107.516 9.73438C107.609 10.4635 107.828 11.0391 108.172 11.4609C108.521 11.8828 109.052 12.0938 109.766 12.0938C110.729 12.0938 111.38 11.5938 111.719 10.5938C111.891 10.0677 111.977 9.52083 111.977 8.95312C111.977 8.38021 111.958 7.9401 111.922 7.63281C111.844 6.90365 111.638 6.32812 111.305 5.90625C110.977 5.47917 110.464 5.26562 109.766 5.26562C108.599 5.26562 107.885 5.82812 107.625 6.95312C107.516 7.42188 107.461 7.92448 107.461 8.46094C107.461 8.99219 107.479 9.41667 107.516 9.73438ZM107.461 5.60938C108.039 4.65104 108.904 4.17188 110.055 4.17188C111.211 4.17188 112.057 4.58854 112.594 5.42188C113.135 6.25521 113.406 7.30208 113.406 8.5625C113.406 10.2135 113.016 11.4557 112.234 12.2891C111.672 12.8932 110.906 13.1953 109.938 13.1953C109.297 13.1953 108.807 13.0781 108.469 12.8438C108.135 12.6042 107.799 12.2656 107.461 11.8281L107.445 13H106.039V0.929688L107.461 0.773438V5.60938ZM119.094 12.1016C120.089 12.1016 120.766 11.6068 121.125 10.6172C121.318 10.0859 121.414 9.54167 121.414 8.98438C121.414 8.42188 121.393 7.98438 121.352 7.67188C121.258 6.96354 121.031 6.38542 120.672 5.9375C120.318 5.48958 119.792 5.26562 119.094 5.26562C118.125 5.26562 117.464 5.77083 117.109 6.78125C116.922 7.32292 116.828 7.89062 116.828 8.48438C116.828 9.53646 116.992 10.4036 117.32 11.0859C117.648 11.763 118.24 12.1016 119.094 12.1016ZM121.906 5.42188C122.526 6.25521 122.836 7.34375 122.836 8.6875C122.836 10.0312 122.5 11.1198 121.828 11.9531C121.156 12.7812 120.245 13.1953 119.094 13.1953C118.479 13.1953 117.932 13.0781 117.453 12.8438C116.974 12.6094 116.586 12.2865 116.289 11.875C115.69 11.0469 115.391 9.96875 115.391 8.64062C115.391 7.3125 115.721 6.23698 116.383 5.41406C117.044 4.58594 117.974 4.17188 119.172 4.17188C120.375 4.17188 121.286 4.58854 121.906 5.42188ZM130.859 11.3594C130.682 11.8073 130.37 12.1927 129.922 12.5156C129.474 12.8385 128.974 13 128.422 13C127.339 13 126.482 12.5807 125.852 11.7422C125.221 10.8984 124.906 9.86979 124.906 8.65625C124.906 7.03125 125.312 5.81771 126.125 5.01562C126.703 4.45312 127.492 4.17188 128.492 4.17188C129.492 4.17188 130.281 4.64583 130.859 5.59375L130.906 4.42969H132.352C132.305 5.70573 132.281 7.40104 132.281 9.51562V11.8125C132.281 13.6562 131.88 14.9115 131.078 15.5781C130.505 16.0625 129.635 16.3698 128.469 16.5C127.896 16.5677 127.219 16.6016 126.438 16.6016L126.32 15.5078C127.456 15.5078 128.268 15.4401 128.758 15.3047C129.253 15.1693 129.612 15.0182 129.836 14.8516C130.06 14.6849 130.253 14.4688 130.414 14.2031C130.711 13.7083 130.859 12.9505 130.859 11.9297V11.3594ZM130.18 5.94531C130.018 5.73698 129.802 5.57292 129.531 5.45312C129.26 5.32812 128.945 5.26562 128.586 5.26562C128.232 5.26562 127.919 5.32812 127.648 5.45312C127.154 5.67708 126.81 6.07031 126.617 6.63281C126.43 7.19531 126.336 7.76042 126.336 8.32812C126.336 8.89062 126.359 9.3125 126.406 9.59375C126.5 10.2031 126.719 10.7135 127.062 11.125C127.406 11.5312 127.893 11.7344 128.523 11.7344C129.523 11.7344 130.203 11.2865 130.562 10.3906C130.76 9.90104 130.859 9.39583 130.859 8.875C130.859 8.34896 130.839 7.92969 130.797 7.61719C130.76 7.30469 130.69 7 130.586 6.70312C130.482 6.40104 130.346 6.14844 130.18 5.94531Z" fill="#171321"/>
</svg>
