<svg viewBox="0 0 44 45" fill="none" xmlns="http://www.w3.org/2000/svg">
<g clip-path="url(#clip0_18_966)">
<path fill-rule="evenodd" clip-rule="evenodd" d="M21.9344 0.918335C9.80527 0.918335 0 10.7959 0 23.0158C0 32.7838 6.28257 41.0522 14.9982 43.9786C16.0878 44.1986 16.487 43.5031 16.487 42.9181C16.487 42.4058 16.4511 40.6499 16.4511 38.8203C10.3494 40.1376 9.07882 36.1861 9.07882 36.1861C8.09825 33.6252 6.64535 32.9669 6.64535 32.9669C4.64829 31.6133 6.79082 31.6133 6.79082 31.6133C9.00608 31.7596 10.1685 33.8815 10.1685 33.8815C12.1292 37.2471 15.2887 36.2961 16.5597 35.7107C16.7411 34.2838 17.3225 33.296 17.9399 32.7474C13.0734 32.2351 7.95322 30.3328 7.95322 21.8448C7.95322 19.4302 8.82425 17.4547 10.2044 15.9183C9.98665 15.3696 9.22384 13.1009 10.4226 10.0645C10.4226 10.0645 12.2747 9.47903 16.4506 12.3327C18.2385 11.849 20.0823 11.603 21.9344 11.6009C23.7865 11.6009 25.6744 11.8573 27.4178 12.3327C31.5942 9.47903 33.4463 10.0645 33.4463 10.0645C34.6451 13.1009 33.8818 15.3696 33.664 15.9183C35.0806 17.4547 35.9157 19.4302 35.9157 21.8448C35.9157 30.3328 30.7955 32.1983 25.8927 32.7474C26.6918 33.4424 27.3815 34.7593 27.3815 36.8448C27.3815 39.808 27.3455 42.1863 27.3455 42.9177C27.3455 43.5032 27.7451 44.1986 28.8344 43.9791C37.55 41.0517 43.8325 32.7838 43.8325 23.0158C43.8684 10.7959 34.0273 0.918335 21.9344 0.918335Z" fill="#FFFAEB"/>
</g>
<defs>
<clipPath id="clip0_18_966">
<rect width="44" height="43.102" fill="white" transform="translate(0 0.918335)"/>
</clipPath>
</defs>
</svg>
