<svg width="40" height="39" viewBox="0 0 40 39" fill="none" xmlns="http://www.w3.org/2000/svg">
<path fill-rule="evenodd" clip-rule="evenodd" d="M3.37246 0C1.53578 0 0.046875 1.45507 0.046875 3.25V35.75C0.046875 37.5449 1.53578 39 3.37246 39H36.6283C38.4649 39 39.9538 37.5449 39.9538 35.75V3.25C39.9538 1.45507 38.4649 0 36.6283 0H3.37246ZM12.2867 8.67256C12.2992 10.7444 10.7123 12.0211 8.82914 12.0119C7.05514 12.0028 5.50874 10.6226 5.5181 8.67562C5.52746 6.84443 7.00838 5.37279 8.93203 5.41545C10.8837 5.45812 12.2992 6.85663 12.2867 8.67256ZM20.6205 14.6505H15.0335H15.0304V33.1968H20.9353V32.7641C20.9353 31.941 20.9346 31.1177 20.934 30.2941C20.9322 28.0975 20.9302 25.8986 20.9417 23.7027C20.9448 23.1695 20.9697 22.615 21.11 22.1061C21.6368 20.2048 23.386 18.977 25.3377 19.2788C26.591 19.4705 27.4202 20.1806 27.7694 21.3354C27.9846 22.0573 28.0813 22.8343 28.0906 23.587C28.1159 25.8568 28.1123 28.1266 28.1088 30.3966C28.1075 31.1978 28.1061 31.9995 28.1061 32.8007V33.1938H34.0299V32.749C34.0299 31.7696 34.0294 30.7905 34.0288 29.8114C34.0277 27.3641 34.0263 24.9169 34.033 22.4688C34.0361 21.3627 33.9146 20.272 33.637 19.2025C33.2224 17.612 32.3651 16.2957 30.9715 15.3452C29.9831 14.6687 28.8981 14.2331 27.6853 14.1843C27.5472 14.1787 27.408 14.1713 27.2681 14.164C26.648 14.1312 26.0177 14.0979 25.4248 14.2148C23.7288 14.5469 22.2387 15.3056 21.1131 16.643C20.9823 16.7964 20.8544 16.9522 20.6635 17.1847L20.6205 17.2374V14.6505ZM5.99222 33.2029H11.8691V14.6625H5.99222V33.2029Z" fill="#171321"/>
</svg>
