<svg width="89" height="25" viewBox="0 0 89 25" fill="none" xmlns="http://www.w3.org/2000/svg">
<path d="M21.3437 0.00946045V19.2911L23.752 19.3006V10.1229H29.5705V7.69377H23.752V2.43857H31.3262V0.00946045H21.3437ZM35.674 3.9225C36.5472 3.9225 37.2458 3.19471 37.2458 2.30625C37.2458 1.41778 36.538 0.689989 35.674 0.689989C34.8007 0.689989 34.1021 1.41778 34.1021 2.30625C34.1021 3.19471 34.8099 3.9225 35.674 3.9225ZM34.4514 6.35161V19.2911H36.8597V6.35161H34.4514Z" fill="black"/>
<path fill-rule="evenodd" clip-rule="evenodd" d="M45.8035 5.97345C42.5955 5.97345 40.3619 8.76173 40.3619 12.0699C40.3619 15.378 42.5955 18.1663 45.8035 18.1663C47.2742 18.1663 48.4784 17.5802 49.3608 16.6351V18.3458C49.3608 20.4914 47.7246 22.2778 45.5829 22.2778C44.8108 22.2778 44.0478 21.9753 43.4412 21.5405L42.2278 23.6956C43.193 24.3383 44.342 24.7069 45.5737 24.7069C48.9931 24.7069 51.7599 21.8619 51.7599 18.3458V6.35152H49.3608V7.50464C48.4784 6.55946 47.2742 5.97345 45.8035 5.97345ZM42.7794 12.0699C42.7794 10.0188 44.3052 8.40256 46.0701 8.40256C47.8349 8.40256 49.3608 10.0188 49.3608 12.0699C49.3608 14.1209 47.8349 15.7371 46.0701 15.7371C44.3052 15.7371 42.7794 14.1209 42.7794 12.0699Z" fill="black"/>
<path d="M60.4646 8.40256C59.0399 8.40256 57.8817 9.6502 57.8817 11.1152V19.291H55.4734V6.35152H57.8817V7.533C58.5895 6.59727 59.6282 5.97345 60.9886 5.97345C62.6799 5.97345 63.976 6.83356 64.7297 8.15681C65.5662 6.88082 66.9266 5.97345 68.5719 5.97345C71.3203 5.97345 73.03 8.25133 73.0392 11.068V19.291H70.6309V11.1058C70.6309 9.64075 69.4728 8.39311 68.048 8.39311C66.6233 8.39311 65.4651 9.64075 65.4651 11.1058V19.291H63.0568V11.1058C63.0476 9.64075 61.8894 8.40256 60.4646 8.40256Z" fill="black"/>
<path fill-rule="evenodd" clip-rule="evenodd" d="M85.8896 7.81655C84.8141 6.67288 83.3434 5.97345 81.6429 5.97345C78.058 5.97345 75.5027 9.10199 75.5027 12.826C75.5027 16.55 78.0489 19.6785 81.6429 19.6785C83.3434 19.6785 84.8141 18.9697 85.8896 17.8354V19.291H88.2979V6.35152H85.8896V7.81655ZM77.9202 12.826C77.9202 10.3591 79.7586 8.40256 81.9095 8.40256C84.0512 8.40256 85.8988 10.3496 85.8988 12.826C85.8988 15.2929 84.0604 17.2494 81.9095 17.2494C79.7586 17.24 77.9202 15.2929 77.9202 12.826Z" fill="black"/>
<path d="M8.09814 12.5046C8.09814 10.2078 9.90896 8.3364 12.1518 8.3364C14.3854 8.3364 16.2054 10.1984 16.2054 12.5046C16.2054 14.8014 14.3946 16.6729 12.1518 16.6729C9.91815 16.6729 8.09814 14.8014 8.09814 12.5046Z" fill="#1ABCFE"/>
<path d="M0 20.8317C0 18.5349 1.81081 16.6635 4.05365 16.6635H8.1073V20.8317C8.1073 23.1285 6.29648 25 4.05365 25C1.81081 25 0 23.138 0 20.8317Z" fill="#0ACF83"/>
<path d="M8.09814 0.00939076V8.33642H12.1518C14.3854 8.33642 16.2054 6.47442 16.2054 4.16818C16.2054 1.87139 14.3946 -6.10352e-05 12.1518 -6.10352e-05H8.09814V0.00939076Z" fill="#FF7262"/>
<path d="M0 4.1777C0 6.47449 1.81081 8.34594 4.05365 8.34594H8.1073V0.00946045H4.05365C1.81081 0.00946045 0 1.87146 0 4.1777Z" fill="#F24E1E"/>
<path d="M0 12.5046C0 14.8014 1.81081 16.6729 4.05365 16.6729H8.1073V8.3364H4.05365C1.81081 8.3364 0 10.2078 0 12.5046Z" fill="#A259FF"/>
</svg>
