<svg width="45" height="44" viewBox="0 0 45 44" fill="none" xmlns="http://www.w3.org/2000/svg">
<path d="M44.1514 20.0399L24.504 0.829785C23.3731 -0.276595 21.538 -0.276595 20.4058 0.829785L16.3259 4.81908L21.5014 9.87969C22.7041 9.4823 24.0833 9.74889 25.042 10.6863C26.0053 11.6298 26.276 12.9898 25.8598 14.1696L30.8476 19.0468C32.0543 18.6403 33.4467 18.9033 34.4105 19.8472C35.7575 21.1638 35.7575 23.2977 34.4105 24.6151C33.0631 25.9328 30.8808 25.9328 29.5327 24.6151C28.5195 23.6234 28.2692 22.1685 28.7821 20.948L24.1306 16.3997L24.1301 28.3688C24.4673 28.5318 24.7752 28.7472 25.042 29.0065C26.389 30.3231 26.389 32.4571 25.042 33.7756C23.6947 35.0925 21.5113 35.0925 20.1658 33.7756C18.8188 32.4571 18.8188 30.3232 20.1658 29.0066C20.4886 28.6908 20.8723 28.4408 21.2945 28.2708V16.1902C20.8717 16.0214 20.4878 15.7712 20.1658 15.4544C19.1453 14.4578 18.8999 12.9936 19.4228 11.7683L14.3209 6.77918L0.849025 19.9511C-0.283008 21.0585 -0.283008 22.8531 0.849025 23.9596L20.4968 43.1701C21.628 44.2766 23.4628 44.2766 24.5954 43.1701L44.1512 24.0488C45.2829 22.9419 45.2831 21.1463 44.1514 20.0399Z" fill="#DE4C36"/>
</svg>
