<svg width="45" height="43" viewBox="0 0 45 43" fill="none" xmlns="http://www.w3.org/2000/svg">
<path fill-rule="evenodd" clip-rule="evenodd" d="M22.5186 0C10.0664 0 0 9.85413 0 22.045C0 31.7899 6.44989 40.0387 15.3976 42.9582C16.5163 43.1776 16.9261 42.4838 16.9261 41.9002C16.9261 41.3891 16.8892 39.6373 16.8892 37.8121C10.6251 39.1263 9.32061 35.1842 9.32061 35.1842C8.31392 32.6293 6.82233 31.9726 6.82233 31.9726C4.77208 30.6221 6.97167 30.6221 6.97167 30.6221C9.24594 30.7682 10.4393 32.885 10.4393 32.885C12.4522 36.2426 15.6958 35.2939 17.0007 34.7098C17.187 33.2863 17.7839 32.3009 18.4177 31.7536C13.4216 31.2425 8.16504 29.3447 8.16504 20.8769C8.16504 18.468 9.05926 16.4972 10.4762 14.9644C10.2526 14.417 9.46949 12.1537 10.7002 9.12447C10.7002 9.12447 12.6016 8.54039 16.8887 11.3873C18.7242 10.9048 20.6171 10.6593 22.5186 10.6572C24.42 10.6572 26.3582 10.913 28.148 11.3873C32.4357 8.54039 34.337 9.12447 34.337 9.12447C35.5677 12.1537 34.7841 14.417 34.5606 14.9644C36.0149 16.4972 36.8722 18.468 36.8722 20.8769C36.8722 29.3447 31.6157 31.2058 26.5822 31.7536C27.4027 32.4469 28.1107 33.7607 28.1107 35.8412C28.1107 38.7975 28.0738 41.1701 28.0738 41.8997C28.0738 42.4838 28.4841 43.1776 29.6023 42.9586C38.55 40.0382 44.9999 31.7899 44.9999 22.045C45.0368 9.85413 34.9335 0 22.5186 0Z" fill="white"/>
</svg>
