<svg width="43" height="41" viewBox="0 0 43 41" fill="none" xmlns="http://www.w3.org/2000/svg">
<path d="M0.884064 0H42.8841V40.9611H0.884064V0Z" fill="#F0DB4F"/>
<path d="M39.4466 31.192C39.1392 29.323 37.8896 27.7539 34.1886 26.2899C32.9031 25.7136 31.4698 25.3009 31.0426 24.3508C30.8909 23.798 30.8709 23.4865 30.9667 23.1516C31.2422 22.0653 32.5717 21.7265 33.6257 22.038C34.3044 22.26 34.9472 22.7701 35.3344 23.5838C37.147 22.4391 37.143 22.4469 38.4086 21.6604C37.9455 20.9595 37.6979 20.6363 37.3945 20.3365C36.3046 19.149 34.8194 18.5377 32.4439 18.5844C32.0327 18.635 31.6175 18.6895 31.2063 18.7401C30.0206 19.0322 28.8907 19.6396 28.228 20.4534C26.2397 22.6533 26.8067 26.504 29.2261 28.0888C31.6095 29.8331 35.1109 30.2303 35.558 31.8617C35.9932 33.8592 34.0529 34.5055 32.1245 34.2758C30.7032 33.9877 29.9128 33.2829 29.0584 32.0019C27.4854 32.8896 27.4854 32.8896 25.8685 33.7969C26.2518 34.6145 26.655 34.9844 27.2978 35.6931C30.34 38.7029 37.9534 38.5549 39.3189 33.9993C39.3747 33.8435 39.7421 32.8001 39.4466 31.192ZM23.7166 18.8258H19.788C19.788 22.1354 19.7721 25.4216 19.7721 28.7312C19.7721 30.8377 19.8839 32.7689 19.5326 33.3607C18.9577 34.5249 17.4685 34.3809 16.7898 34.155C16.0991 33.824 15.7478 33.3529 15.3406 32.6871C15.2288 32.4963 15.1449 32.3484 15.1169 32.3367C14.051 32.9714 12.989 33.6099 11.923 34.2446C12.454 35.3076 13.2365 36.2304 14.2386 36.8299C15.7358 37.706 17.7479 37.9747 19.852 37.5035C21.2213 37.1142 22.4031 36.3082 23.0219 35.0817C23.9162 33.4737 23.7245 31.5268 23.7166 29.3736C23.7365 25.8616 23.7166 22.3495 23.7166 18.8258Z" fill="#323330"/>
</svg>
