<svg width="44" height="44" viewBox="0 0 44 44" fill="none" xmlns="http://www.w3.org/2000/svg">
<path d="M32.6539 41.2506C32.4902 41.3372 32.504 41.3647 32.6607 41.2849C32.7116 41.2643 32.7542 41.2354 32.7914 41.2011C32.7914 41.1722 32.7914 41.1722 32.6539 41.2506ZM32.9838 41.0718C32.9055 41.1364 32.9055 41.1364 32.999 41.0938C33.0485 41.0649 33.0925 41.0374 33.0925 41.0292C33.0925 40.9921 33.0705 41.0003 32.9838 41.0718ZM33.1983 40.9426C33.12 41.0072 33.12 41.0072 33.2135 40.9646C33.2643 40.9357 33.307 40.9055 33.307 40.8986C33.307 40.8642 33.285 40.8711 33.1983 40.9426ZM33.4156 40.8147C33.3372 40.8793 33.3372 40.8793 33.428 40.8353C33.4788 40.8078 33.5215 40.779 33.5215 40.7707C33.5215 40.7363 33.4995 40.7432 33.4156 40.8147ZM33.7084 40.6208C33.5586 40.7212 33.5063 40.7858 33.6438 40.7143C33.7359 40.658 33.8927 40.5342 33.8652 40.5342C33.8061 40.5562 33.7566 40.5933 33.7071 40.6208H33.7084ZM20.5597 0.010106C20.4594 0.0169808 20.1582 0.0444799 19.8943 0.0664792C13.6409 0.632962 7.79051 3.99886 4.08225 9.18382C2.03219 12.0259 0.701228 15.3271 0.199369 18.7934C0.0219993 20.0034 0 20.3608 0 22.0012C0 23.6401 0.0219993 23.9921 0.199369 25.2021C1.39696 33.4669 7.27627 40.405 15.2455 42.9761C16.6796 43.434 18.1824 43.7502 19.8943 43.9441C20.5597 44.0156 23.4375 44.0156 24.103 43.9441C27.0619 43.6141 29.5602 42.884 32.0324 41.6232C32.4119 41.4307 32.4834 41.3798 32.4325 41.3372C31.2225 39.7409 30.0346 38.1432 28.8452 36.5317L25.3295 31.784L20.9255 25.2598C19.457 23.0764 17.9831 20.8985 16.4857 18.737C16.4706 18.737 16.4514 21.6368 16.4431 25.1732C16.428 31.3674 16.428 31.619 16.3496 31.762C16.2712 31.9339 16.142 32.0769 15.9701 32.1566C15.834 32.2212 15.7116 32.235 15.0613 32.235H14.3174L14.1236 32.114C14.0026 32.0356 13.9022 31.927 13.8376 31.7991L13.7441 31.6052L13.7509 22.9829L13.7661 14.3605L13.9022 14.1887C13.9888 14.0828 14.0961 13.9962 14.2171 13.9315C14.3972 13.8449 14.4687 13.8312 15.2125 13.8312C16.0856 13.8312 16.23 13.8655 16.4596 14.1172C18.2416 16.7736 20.018 19.4369 21.7656 22.1084C24.6241 26.4423 28.5262 32.356 30.4443 35.2571L33.9326 40.5356L34.1044 40.4215C35.7805 39.3036 37.3053 37.9727 38.6212 36.4547C41.3931 33.2813 43.1915 29.3778 43.8006 25.2117C43.978 24.0017 44 23.6429 44 22.0039C44 20.3636 43.978 20.013 43.8006 18.803C42.603 10.5382 36.7237 3.60012 28.7545 1.02757C27.264 0.555964 25.7309 0.234224 24.1786 0.0692291C23.762 0.0266055 20.9186 -0.024268 20.5611 0.0128559L20.5597 0.010106ZM29.5616 13.3156C29.7692 13.4146 29.9259 13.6016 29.9974 13.8161C30.0346 13.9315 30.0414 16.3226 30.0346 21.7083L30.0194 29.4411L28.6596 27.3511L27.2915 25.2598V19.6459C27.2915 16.0064 27.3066 13.9659 27.3259 13.8655C27.3905 13.6359 27.5473 13.4434 27.7563 13.3224C27.9268 13.2358 27.9928 13.2289 28.6734 13.2289C29.31 13.2289 29.4186 13.2358 29.5616 13.3156Z" fill="black"/>
</svg>
