<svg width="44" height="44" viewBox="0 0 44 44" fill="none" xmlns="http://www.w3.org/2000/svg">
<path d="M39.2873 8.55335C36.7008 5.10933 33.1791 2.53138 29.1676 1.14554C25.1562 -0.240302 20.8352 -0.371782 16.751 0.767728C12.6669 1.90724 9.00316 4.26655 6.22313 7.54728C3.4431 10.828 1.67167 14.8828 1.13288 19.1988C0.594083 23.5148 1.31213 27.8982 3.19621 31.7945C5.08028 35.6909 8.04576 38.9252 11.7176 41.0885C15.3894 43.2517 19.6026 44.2467 23.8244 43.9476C28.0462 43.6485 32.0869 42.0687 35.4355 39.4081C44.7824 31.9804 46.5081 18.168 39.2873 8.55335Z" fill="#FF6C37"/>
<path d="M29.57 14.0176L20.5486 23.3675L17.9993 20.6725C26.8782 11.5426 27.7688 12.3676 29.57 14.0176Z" fill="white"/>
<path d="M20.5486 23.6232C20.4687 23.6212 20.3924 23.5886 20.3346 23.5318L17.7672 20.8918C17.7094 20.8303 17.6771 20.7481 17.6771 20.6625C17.6771 20.577 17.7094 20.4948 17.7672 20.4333C26.5211 11.4319 27.7159 11.8533 29.7838 13.7783C29.8185 13.8068 29.8462 13.8432 29.8647 13.8846C29.8833 13.926 29.8922 13.9713 29.8908 14.0169C29.9042 14.1062 29.8708 14.1977 29.8019 14.2554L20.7806 23.5325C20.7173 23.5921 20.6344 23.6241 20.5486 23.6232ZM18.4445 20.6718L20.5486 22.8354L29.1066 14.0354C28.8111 13.6547 28.3894 13.3993 27.9223 13.3181C27.4552 13.2369 26.9754 13.3357 26.5746 13.5954C25.0235 14.3104 22.5276 16.4919 18.4445 20.6718Z" fill="#FF6C37"/>
<path d="M23.1341 25.9525L20.6736 23.3675L29.695 14.2004C32.12 16.639 28.5183 20.7096 23.1341 25.9525Z" fill="white"/>
<path d="M23.134 26.2824C23.0551 26.276 22.9802 26.244 22.9201 26.191L20.4062 23.661C20.3685 23.567 20.3685 23.4615 20.4062 23.3675C20.3795 23.2903 20.3795 23.206 20.4062 23.1289L29.4275 13.8525C29.4903 13.7919 29.5731 13.7582 29.6592 13.7582C29.7453 13.7582 29.8281 13.7919 29.8909 13.8525C30.183 14.129 30.4138 14.467 30.5676 14.8434C30.7214 15.2198 30.7945 15.6259 30.7821 16.034C30.7821 18.5089 28.0362 21.6254 23.3654 26.1724C23.303 26.2359 23.2215 26.2749 23.134 26.2824ZM21.137 23.3675L23.1514 25.4382C26.717 21.9732 30.1229 18.3983 30.1402 15.9783C30.1596 15.4652 29.9947 14.9628 29.6769 14.5668L21.137 23.3675Z" fill="#FF6C37"/>
<path d="M18.0701 20.7275L19.8532 22.5611C19.8646 22.5714 19.8737 22.5841 19.88 22.5983C19.8862 22.6125 19.8895 22.6279 19.8895 22.6436C19.8895 22.6592 19.8862 22.6746 19.88 22.6888C19.8737 22.703 19.8646 22.7157 19.8532 22.7261L16.0911 23.551C16.0151 23.5679 15.9359 23.5588 15.8655 23.5251C15.795 23.4913 15.7372 23.4349 15.7009 23.3643C15.6646 23.2937 15.6517 23.2128 15.6642 23.1339C15.6767 23.0551 15.7139 22.9826 15.7701 22.9275L17.9631 20.6911C17.9631 20.6911 18.0347 20.6911 18.0701 20.7275Z" fill="white"/>
<path d="M16.0022 23.9175C15.8833 23.9159 15.7668 23.8831 15.6638 23.8221C15.5608 23.7611 15.4747 23.6739 15.4138 23.5689C15.3453 23.436 15.3204 23.2838 15.3429 23.1351C15.3655 22.9864 15.4342 22.8491 15.5388 22.7439L17.7138 20.489C17.7922 20.4169 17.8937 20.377 17.9989 20.377C18.1041 20.377 18.2056 20.4169 18.2841 20.489L20.0672 22.3225C20.1729 22.4256 20.2143 22.5817 20.1742 22.7261C20.1341 22.8704 20.0164 22.9852 19.8713 23.0196L16.1091 23.8446L16.0022 23.9175ZM17.9993 21.1311L15.9848 23.2025L19.3191 22.4689L17.9993 21.1311Z" fill="#FF6C37"/>
<path d="M34.3664 8.86548C33.0761 7.58537 31.0489 7.53174 29.6956 8.73967C28.3424 9.9476 28.1111 12.0211 29.1648 13.5129C30.2185 15.0048 32.2049 15.4228 33.7426 14.4754L31.3177 11.9819L34.3664 8.86548Z" fill="white"/>
<path d="M31.9595 15.3183C31.2181 15.3085 30.4959 15.0746 29.8829 14.6458C29.2699 14.2169 28.7932 13.6121 28.5122 12.9066C28.2314 12.2016 28.1577 11.4274 28.3003 10.6799C28.4429 9.9323 28.7955 9.24412 29.3145 8.70048C30.0283 7.97996 30.9886 7.57629 31.9889 7.57629C32.9892 7.57629 33.9495 7.97996 34.6633 8.70048C34.7315 8.7596 34.7703 8.84691 34.7703 8.93904C34.7701 8.98436 34.7605 9.02912 34.742 9.07028C34.7235 9.11144 34.6967 9.14804 34.6633 9.1776L31.775 11.9826L33.9679 14.2011C34.0035 14.236 34.0302 14.2793 34.0457 14.3272C34.0612 14.3752 34.065 14.4263 34.0569 14.4761C34.0516 14.5242 34.0361 14.5705 34.0115 14.6117C33.9869 14.6529 33.9537 14.6881 33.9145 14.7147C33.3253 15.0933 32.648 15.3023 31.9535 15.3197L31.9595 15.3183ZM31.9595 8.20479C30.6892 8.21167 29.5525 8.99747 29.0758 10.1985C28.5991 11.3996 28.8585 12.7821 29.7491 13.7047C30.1921 14.1629 30.7593 14.4728 31.3764 14.5939C31.9935 14.7149 32.6319 14.6415 33.2077 14.3833L31.1037 12.2198C31.0702 12.1923 31.0432 12.1574 31.0247 12.1177C31.0061 12.078 30.9965 12.0345 30.9965 11.9905C30.9965 11.9464 31.0061 11.903 31.0247 11.8633C31.0432 11.8236 31.0702 11.7887 31.1037 11.7612L33.885 8.88266C33.3321 8.44695 32.6561 8.20939 31.9595 8.20479Z" fill="#FF6C37"/>
<path d="M34.4199 8.92047L31.3711 12.0369L33.7961 14.5304C34.0402 14.3864 34.2674 14.214 34.4734 14.0169C35.109 13.3261 35.4587 12.4084 35.4487 11.4575C35.4387 10.5067 35.0698 9.59698 34.4199 8.92047Z" fill="white"/>
<path d="M33.7419 14.8054C33.7019 14.8077 33.6619 14.8006 33.6248 14.7848C33.5878 14.7689 33.5547 14.7447 33.528 14.714L31.103 12.2204C31.0695 12.1929 31.0425 12.1581 31.024 12.1184C31.0054 12.0787 30.9958 12.0352 30.9958 11.9912C30.9958 11.9471 31.0054 11.9037 31.024 11.864C31.0425 11.8243 31.0695 11.7894 31.103 11.7619L34.1337 8.70047C34.163 8.65509 34.2027 8.61787 34.2494 8.59211C34.2961 8.56636 34.3482 8.55289 34.4012 8.55289C34.4541 8.55289 34.5063 8.56636 34.5529 8.59211C34.5996 8.61787 34.6393 8.65509 34.6686 8.70047C35.0244 9.05893 35.3071 9.4868 35.5 9.959C35.693 10.4312 35.7924 10.9383 35.7924 11.4504C35.7924 11.9626 35.693 12.4697 35.5 12.9419C35.3071 13.4141 35.0244 13.842 34.6686 14.2004C34.4587 14.4293 34.2186 14.6267 33.9552 14.7869C33.8889 14.8212 33.8129 14.8279 33.7419 14.8054ZM31.7809 11.9826L33.7954 14.054C33.934 13.9541 34.0652 13.8438 34.1879 13.724C34.7801 13.1167 35.1136 12.2926 35.1152 11.4326C35.1166 10.663 34.8438 9.91947 34.3483 9.34259L31.7809 11.9826Z" fill="#FF6C37"/>
<path d="M29.9444 14.4026C29.7029 14.1694 29.3841 14.0396 29.0528 14.0396C28.7215 14.0396 28.4027 14.1694 28.1612 14.4026L20.0853 22.6882L21.4225 24.0818L29.9624 16.3819C30.0926 16.2535 30.1959 16.0991 30.266 15.9282C30.336 15.7572 30.3712 15.5733 30.3695 15.3879C30.3679 15.2024 30.3293 15.0192 30.2561 14.8496C30.183 14.6801 30.0769 14.5284 29.9444 14.4026Z" fill="white"/>
<path d="M21.3509 24.4125C21.271 24.4104 21.1947 24.3778 21.137 24.321L19.7817 22.9275C19.7239 22.866 19.6916 22.7837 19.6916 22.6982C19.6916 22.6127 19.7239 22.5304 19.7817 22.4689L27.8583 14.2004C28.091 13.9615 28.3881 13.8 28.711 13.7368C29.034 13.6735 29.3681 13.7116 29.6698 13.8459C29.9715 13.9803 30.227 14.2047 30.4032 14.4902C30.5793 14.7756 30.668 15.1089 30.6578 15.4469C30.6485 15.6762 30.5948 15.9014 30.4999 16.1092C30.4049 16.3169 30.2706 16.5031 30.1048 16.6568L21.5649 24.3568C21.5028 24.402 21.4264 24.4223 21.3509 24.4125ZM20.4062 22.6882L21.2974 23.6232L29.6769 16.1247C29.8842 15.9391 30.0079 15.6737 30.0159 15.3912C30.0239 15.1086 29.9156 14.8322 29.713 14.6397C29.5259 14.4482 29.2727 14.3406 29.0087 14.3406C28.7446 14.3406 28.4914 14.4482 28.3043 14.6397L20.4062 22.6882Z" fill="#FF6C37"/>
<path d="M13.8272 32.1303C13.8044 32.1622 13.7921 32.2007 13.7921 32.2403C13.7921 32.2799 13.8044 32.3184 13.8272 32.3503L14.1836 33.9453C14.1978 34.0391 14.1843 34.1352 14.1447 34.2211C14.1051 34.3069 14.0413 34.3785 13.9616 34.4265C13.8821 34.4743 13.79 34.4949 13.6985 34.4854C13.6069 34.4759 13.5206 34.4367 13.4521 34.3736L11.0097 31.9536L18.623 24.0632H21.262L23.0451 25.8968C20.2635 28.3975 17.1621 30.4948 13.8272 32.1303Z" fill="white"/>
<path d="M13.6668 34.8252C13.4649 34.8211 13.2656 34.7359 13.1319 34.5867L10.7965 32.1853C10.7631 32.1578 10.7361 32.1229 10.7175 32.0832C10.6989 32.0435 10.6893 32 10.6893 31.956C10.6893 31.9119 10.6989 31.8685 10.7175 31.8288C10.7361 31.7891 10.7631 31.7542 10.7965 31.7267L18.4626 23.8253C18.5055 23.7784 18.5616 23.7465 18.6231 23.7339H21.2794C21.3486 23.7087 21.4241 23.7087 21.4933 23.7339L23.2765 25.5674C23.3104 25.5996 23.3362 25.6397 23.3517 25.6844C23.3672 25.7291 23.3719 25.7769 23.3654 25.8239C23.3667 25.8694 23.3577 25.9147 23.3391 25.9561C23.3205 25.9974 23.2929 26.0338 23.2584 26.0624L23.116 26.191C20.3232 28.5851 17.2507 30.6112 13.9697 32.2224L14.3086 33.7074C14.3348 33.8219 14.3358 33.9411 14.3116 34.0561C14.2873 34.1711 14.2384 34.2791 14.1683 34.3721C14.0983 34.4652 14.009 34.5411 13.9068 34.5941C13.8047 34.6472 13.6923 34.6761 13.5779 34.6788L13.6668 34.8252ZM11.4918 31.9467L13.5952 34.1281C13.6148 34.1461 13.6402 34.156 13.6664 34.156C13.6927 34.156 13.7181 34.1461 13.7376 34.1281C13.7508 34.1094 13.7578 34.0869 13.7578 34.0638C13.7578 34.0408 13.7508 34.0183 13.7376 33.9996L13.3813 32.4046C13.3532 32.2901 13.3645 32.1692 13.4132 32.0623C13.462 31.9554 13.5452 31.8691 13.6487 31.8181C16.8416 30.2285 19.8349 28.2461 22.5631 25.9146L21.1009 24.4111H18.712L11.4918 31.9467Z" fill="#FF6C37"/>
<path d="M9.17379 33.8353L10.9569 32.0017L13.7029 34.8252L9.33493 34.5138C9.25993 34.5078 9.18871 34.4775 9.13143 34.4274C9.07414 34.3773 9.03372 34.3098 9.01593 34.2346C8.99814 34.1595 9.00389 34.0805 9.03236 34.0089C9.06083 33.9373 9.11056 33.8768 9.17446 33.8359L9.17379 33.8353Z" fill="white"/>
<path d="M13.7557 35.1003L9.40513 34.7888C9.14706 34.7641 8.92508 34.5826 8.83416 34.3399C8.74323 34.0972 8.79872 33.8091 8.97723 33.6153L10.7604 31.7817C10.8202 31.7223 10.9002 31.6891 10.9834 31.6891C11.0665 31.6891 11.1465 31.7223 11.2063 31.7817L13.9342 34.5867C13.972 34.6399 13.9923 34.704 13.9923 34.7699C13.9923 34.8358 13.972 34.8999 13.9342 34.9531C13.8929 35.0217 13.8299 35.0741 13.7557 35.1003ZM9.40513 34.0738L12.9707 34.3124L11.0098 32.4238L9.40513 34.0738Z" fill="#FF6C37"/>
<path d="M21.5114 24.2846L17.9097 24.8532L19.9957 22.7267L21.5114 24.2846Z" fill="white"/>
<path d="M17.9097 25.2003C17.8498 25.202 17.7908 25.1854 17.74 25.1528C17.6893 25.1201 17.649 25.0728 17.6242 25.0168C17.5862 24.9637 17.5657 24.8995 17.5657 24.8336C17.5657 24.7677 17.5862 24.7035 17.6242 24.6504L19.6921 22.5054C19.7549 22.4448 19.8377 22.411 19.9238 22.411C20.0099 22.411 20.0927 22.4448 20.1555 22.5054L21.6718 24.0632C21.7021 24.1126 21.7182 24.1698 21.7182 24.2282C21.7182 24.2866 21.7021 24.3438 21.6718 24.3932C21.657 24.4534 21.6255 24.508 21.5813 24.5503C21.5371 24.5926 21.4819 24.6209 21.4225 24.6318L17.8568 25.2003H17.9097ZM19.9957 23.2018L18.837 24.3932L20.8341 24.0818L19.9957 23.2018Z" fill="#FF6C37"/>
<path d="M21.5113 24.2832L18.9974 24.6132C18.9301 24.6289 18.8597 24.6219 18.7966 24.5932C18.7335 24.5646 18.6811 24.5157 18.6471 24.454C18.6131 24.3923 18.5994 24.3209 18.6079 24.2505C18.6165 24.1802 18.6468 24.1145 18.6945 24.0632L19.9963 22.7247L21.5113 24.2832Z" fill="white"/>
<path d="M18.9259 24.9625C18.8094 24.9613 18.6952 24.9285 18.5951 24.8672C18.4949 24.806 18.4123 24.7186 18.3556 24.6139C18.2875 24.4884 18.2611 24.3435 18.2804 24.2012C18.2997 24.0589 18.3637 23.9269 18.4626 23.8254L19.7643 22.4868C19.8271 22.4262 19.9099 22.3924 19.996 22.3924C20.0821 22.3924 20.1649 22.4262 20.2277 22.4868L21.7434 24.0454C21.7884 24.0893 21.8201 24.1457 21.8347 24.2078C21.8492 24.2698 21.8459 24.3349 21.8251 24.3951C21.8044 24.4553 21.7671 24.508 21.7178 24.5468C21.6686 24.5857 21.6094 24.609 21.5475 24.6139L19.0516 24.9439L18.9259 24.9625ZM18.9259 24.2839L20.816 24.0454L19.9783 23.1839L18.9085 24.2839H18.9259ZM34.4373 11.029C34.4037 10.9712 34.3506 10.928 34.2881 10.9077C34.2257 10.8875 34.1581 10.8915 34.0983 10.919C34.0688 10.9344 34.0426 10.9557 34.0212 10.9817C33.9999 11.0077 33.9838 11.0378 33.9739 11.0703C33.9541 11.1358 33.9604 11.2068 33.9913 11.2676C34.1164 11.5378 34.0816 11.8575 33.9024 12.0926C33.8802 12.1152 33.8627 12.1424 33.8512 12.1723C33.8397 12.2023 33.8344 12.2343 33.8355 12.2665C33.8362 12.331 33.86 12.3929 33.9024 12.4405C33.9482 12.459 33.9991 12.459 34.0448 12.4405C34.0863 12.4512 34.1299 12.45 34.1708 12.437C34.2117 12.4241 34.2484 12.3998 34.2768 12.3669C34.4236 12.1821 34.5166 11.9583 34.545 11.7214C34.5734 11.4846 34.5361 11.245 34.4373 11.029Z" fill="#FF6C37"/>
</svg>
