<svg width="44" height="39" viewBox="0 0 44 39" fill="none" xmlns="http://www.w3.org/2000/svg">
<path d="M35.9391 12.477C35.475 12.3224 35.0109 12.1763 34.5469 12.0388C34.6242 11.7208 34.693 11.4028 34.7617 11.0849C35.8188 5.96299 35.1227 1.84658 32.7766 0.488769C30.5164 -0.808887 26.8297 0.540332 23.1 3.78877C22.7305 4.10674 22.3695 4.44189 22.0258 4.77705C21.7937 4.55361 21.5531 4.33018 21.3125 4.11533C17.4023 0.643457 13.4836 -0.817481 11.1375 0.548925C8.88594 1.85518 8.21562 5.73096 9.16094 10.5778C9.25547 11.0591 9.35859 11.5317 9.47891 12.013C8.92891 12.1677 8.3875 12.3395 7.88047 12.52C3.29141 14.1099 0 16.6192 0 19.2146C0 21.8958 3.50625 24.5856 8.27578 26.2185C8.6625 26.3474 9.04922 26.4763 9.44453 26.588C9.31563 27.1036 9.20391 27.6106 9.10078 28.1349C8.19844 32.9044 8.90313 36.6856 11.1547 37.9833C13.475 39.3239 17.3766 37.9489 21.175 34.6231C21.4758 34.3567 21.7766 34.0817 22.0773 33.7896C22.4555 34.1591 22.8508 34.5114 23.2461 34.8552C26.9242 38.0177 30.5594 39.2981 32.8023 38.0005C35.1227 36.6599 35.8789 32.595 34.8992 27.645C34.8219 27.2669 34.7359 26.8802 34.6414 26.4849C34.9164 26.4075 35.1828 26.3216 35.4492 26.2356C40.4078 24.5942 44 21.9388 44 19.2146C44 16.6106 40.6141 14.0841 35.9391 12.477ZM24.3117 5.18096C27.5086 2.39658 30.4906 1.30518 31.8484 2.08721C33.3008 2.9208 33.8594 6.28955 32.9484 10.7153C32.8883 11.0075 32.8281 11.2911 32.7508 11.5747C30.843 11.145 28.9094 10.8356 26.9672 10.6638C25.85 9.06533 24.6297 7.53564 23.3063 6.10049C23.6414 5.78252 23.968 5.48174 24.3117 5.18096ZM14.3687 23.6747C14.807 24.4224 15.2539 25.17 15.7266 25.9005C14.3859 25.7544 13.0539 25.5395 11.7391 25.256C12.1172 24.0185 12.5898 22.738 13.1398 21.4317C13.5352 22.188 13.9391 22.9356 14.3687 23.6747ZM11.7648 13.3364C13.0023 13.0614 14.3172 12.838 15.6836 12.6661C15.2281 13.3794 14.7813 14.1099 14.3602 14.8489C13.9391 15.5794 13.5266 16.327 13.1398 17.0833C12.5984 15.8028 12.143 14.5481 11.7648 13.3364ZM14.1195 19.2575C14.6867 18.0716 15.3055 16.9114 15.9586 15.7685C16.6117 14.6255 17.3164 13.5169 18.0555 12.4255C19.3445 12.331 20.6594 12.2794 22 12.2794C23.3406 12.2794 24.6641 12.331 25.9445 12.4255C26.675 13.5083 27.3711 14.6169 28.0328 15.7513C28.6945 16.8856 29.3133 18.0458 29.8977 19.2231C29.3219 20.4091 28.7031 21.5778 28.0414 22.7294C27.3883 23.8724 26.6922 24.981 25.9617 26.081C24.6813 26.1755 23.3492 26.2185 22 26.2185C20.6508 26.2185 19.3445 26.1755 18.0812 26.0981C17.3336 25.0067 16.6289 23.8896 15.9672 22.7466C15.3055 21.6036 14.6953 20.4435 14.1195 19.2575ZM29.6398 23.6575C30.0781 22.9013 30.4906 22.1364 30.8945 21.363C31.4445 22.6091 31.9258 23.8724 32.3469 25.17C31.0148 25.4708 29.6656 25.7028 28.3078 25.8575C28.7719 25.1356 29.2102 24.3966 29.6398 23.6575ZM30.8773 17.0833C30.4734 16.327 30.0609 15.5708 29.6312 14.8317C29.2102 14.1013 28.7719 13.3794 28.3164 12.6661C29.7 12.838 31.0234 13.07 32.2609 13.3536C31.8656 14.6255 31.4016 15.863 30.8773 17.0833ZM22.0172 7.41533C22.9195 8.39502 23.7703 9.42627 24.5609 10.4919C22.8594 10.4146 21.1492 10.4146 19.4477 10.4919C20.2898 9.3833 21.1578 8.35205 22.0172 7.41533ZM12.0484 2.14736C13.4922 1.30518 16.6977 2.5083 20.075 5.49893C20.2898 5.68799 20.5047 5.89424 20.7281 6.10049C19.3961 7.53564 18.1672 9.06533 17.0414 10.6638C15.0992 10.8356 13.1742 11.1364 11.2664 11.5575C11.1547 11.1192 11.0602 10.6724 10.9656 10.2255C10.1578 6.06611 10.6906 2.92939 12.0484 2.14736ZM9.94297 24.8005C9.58203 24.6974 9.22969 24.5856 8.87734 24.4653C7.04688 23.8896 4.96719 22.9786 3.46328 21.7841C2.59531 21.1825 2.01094 20.2544 1.84766 19.2146C1.84766 17.6419 4.56328 15.631 8.48203 14.2645C8.97187 14.0927 9.47031 13.938 9.96875 13.7919C10.5531 15.6567 11.2578 17.4872 12.0742 19.2575C11.2492 21.0536 10.5359 22.9099 9.94297 24.8005ZM19.9633 33.2224C18.5453 34.52 16.9039 35.5513 15.1164 36.256C14.1625 36.7114 13.0625 36.7544 12.0828 36.3677C10.7164 35.5771 10.1492 32.5435 10.9227 28.4614C11.0172 27.9802 11.1203 27.4989 11.2406 27.0263C13.1656 27.4388 15.1078 27.7224 17.0758 27.8685C18.2102 29.4755 19.4562 31.0138 20.7883 32.4575C20.5133 32.7239 20.2383 32.9817 19.9633 33.2224ZM22.0687 31.1341C21.1922 30.1888 20.3156 29.1403 19.4648 28.0145C20.2898 28.0489 21.1406 28.0661 22 28.0661C22.8852 28.0661 23.7531 28.0489 24.6125 28.006C23.8219 29.0974 22.9711 30.1372 22.0687 31.1341ZM33.3008 33.7122C33.2234 34.7606 32.7078 35.7403 31.8828 36.4021C30.5164 37.1927 27.6031 36.1614 24.4578 33.463C24.0969 33.1536 23.7359 32.8185 23.3664 32.4747C24.6812 31.0224 25.893 29.4841 26.993 27.8685C28.9609 27.7052 30.9203 27.4044 32.8539 26.9661C32.9398 27.3185 33.0172 27.6708 33.0859 28.0145C33.507 29.8708 33.5758 31.8044 33.3008 33.7122ZM34.8648 24.4739C34.6242 24.5513 34.3836 24.6286 34.1344 24.6974C33.5328 22.8239 32.7938 20.9935 31.943 19.2146C32.768 17.4614 33.4641 15.6567 34.0484 13.8091C34.4953 13.938 34.925 14.0755 35.3375 14.213C39.3422 15.588 42.1523 17.6333 42.1523 19.1974C42.1523 20.8817 39.1531 23.056 34.8648 24.4739ZM22 23.1849C24.1742 23.1849 25.9359 21.4231 25.9359 19.2489C25.9359 17.0747 24.1742 15.313 22 15.313C19.8258 15.313 18.0641 17.0747 18.0641 19.2489C18.0641 21.4231 19.8258 23.1849 22 23.1849Z" fill="#74C0FC"/>
</svg>
