<svg width="100" height="20" viewBox="0 0 100 20" fill="none" xmlns="http://www.w3.org/2000/svg">
<path d="M74.1326 7.08039V19.6897H70.0705V5.10577L74.1326 7.08039Z" fill="#F37368"/>
<path d="M16.6432 17.3484L19.6897 20L32.5247 13.3145L31.1989 10.127L16.6432 17.3484ZM70.0705 9.22428L80.3949 3.86462L78.646 0.846283L70.0705 5.1058V9.22428Z" fill="#F7A199"/>
<path d="M41.0155 6.09306V19.6897H37.1227V0.310272L41.0155 6.09306ZM16.6432 17.3484L19.6897 20L25.5571 5.33143L23.6671 0.310272L16.6432 17.3484Z" fill="#F37368"/>
<path d="M23.6671 0.310272H27.6728L35.0917 19.6897H30.9732L23.6671 0.310272ZM41.6079 0.310272L50.1552 13.5402V19.6897L37.1227 0.310272H41.6079ZM57.4894 0.310272H61.5233V19.6897H57.4894V0.310272ZM70.0705 3.86457H63.8646V0.310272H78.3357L80.3949 3.86457H74.1326H70.0705Z" fill="#F04939"/>
<path d="M92.3272 12.3272V19.6897H88.3215V12.3272" fill="#F7A199"/>
<path d="M95.0916 0.310272L88.3215 12.3272H92.3272L99.3512 0.310272H95.0916Z" fill="#F04939"/>
<path d="M88.3216 12.3272L81.3258 0.310272H85.7264L90.4372 8.54722L88.3216 12.3272Z" fill="#F37368"/>
<path d="M1.60793 2.56702C1.60793 5.24685 3.27225 6.85475 6.60088 7.70101L10.127 8.51906C13.2864 9.25249 15.2045 11.0578 15.2045 13.9916C15.2328 15.261 14.8096 16.5021 14.048 17.5176C14.048 14.5839 12.5247 13.0043 8.88579 12.0452L5.41611 11.2553C2.62345 10.6347 0.479584 9.13965 0.479584 5.95207C0.479584 4.73909 0.874506 3.52611 1.60793 2.56702Z" fill="#F04939"/>
<path d="M50.1552 12.5529V0.310272H54.048V19.6897H50.1552V12.5529Z" fill="#F37368"/>
<path d="M11.8759 13.2581C13.3709 14.2172 14.048 15.5712 14.048 17.5176C12.7786 19.1255 10.6065 20 8.03949 20C3.72355 20 0.648801 17.8561 0 14.1608H4.14668C4.68265 15.8533 6.09309 16.6432 8.01128 16.6432C10.2962 16.6714 11.8477 15.4302 11.8759 13.2581ZM3.77997 6.54443C2.36953 5.69817 1.55148 4.17489 1.6079 2.53879C2.82087 0.959097 4.90832 0 7.44711 0C11.8759 0 14.4147 2.34133 15.0635 5.61354H11.0578C10.6065 4.31594 9.50634 3.30042 7.50352 3.30042C5.33145 3.32863 3.8646 4.56982 3.77997 6.54443Z" fill="#F37368"/>
</svg>
