<svg width="43" height="43" viewBox="0 0 43 43" fill="none" xmlns="http://www.w3.org/2000/svg">
<path d="M0.609221 14.899C0.609221 14.899 -0.413744 14.1407 0.813813 13.1283L3.67385 10.4986C3.67385 10.4986 4.49222 9.61325 5.35748 10.3846L31.75 30.9314V40.784C31.75 40.784 31.7372 42.3311 29.8063 42.1602L0.609221 14.899Z" fill="#2489CA"/>
<path d="M7.41194 21.2497L0.609231 27.6092C0.609231 27.6092 -0.089794 28.1439 0.609231 29.0994L3.76763 32.0534C3.76763 32.0534 4.51781 32.8818 5.62602 31.9394L12.8379 26.3163L7.41194 21.2497Z" fill="#1070B3"/>
<path d="M19.355 21.3023L31.8309 11.5066L31.7499 1.70661C31.7499 1.70661 31.2171 -0.43222 29.4397 0.681021L12.8379 16.2182L19.355 21.3023Z" fill="#0877B9"/>
<path d="M29.8063 42.1734C30.5309 42.936 31.409 42.6862 31.409 42.6862L41.1314 37.7599C42.376 36.8877 42.2012 35.8051 42.2012 35.8051V6.38748C42.2012 5.09454 40.914 4.64749 40.914 4.64749L32.4873 0.470648C30.646 -0.699571 29.4398 0.681024 29.4398 0.681024C29.4398 0.681024 30.9913 -0.46728 31.75 1.70661V40.6043C31.75 40.8717 31.6945 41.1346 31.5837 41.3713C31.3621 41.8315 30.8804 42.261 29.7253 42.0813L29.8063 42.1734Z" fill="#3C99D4"/>
</svg>
